<svg width="49" height="45" viewBox="0 0 49 45" fill="none" xmlns="http://www.w3.org/2000/svg">
<path d="M47.3873 0L26.791 15.2398L30.6211 6.25856L47.3873 0Z" fill="#E17726"/>
<path d="M1.66072 0.0180054L18.3822 6.25969L22.0189 15.3587L1.66072 0.0180054ZM39.0987 32.4109L48.202 32.5841L45.0205 43.392L33.9124 40.3337L39.0987 32.4109ZM9.90097 32.4109L15.0679 40.3337L3.97859 43.3922L0.816406 32.5841L9.90097 32.4109Z" fill="#E27625"/>
<path d="M21.5247 13.041L21.8967 25.0565L10.7646 24.5501L13.9311 19.773L13.9713 19.727L21.5247 13.041ZM27.3603 12.9069L35.029 19.7274L35.0688 19.7732L38.2353 24.5503L27.1056 25.0565L27.3603 12.9069ZM15.3942 32.4457L21.4726 37.1818L14.4117 40.5907L15.3942 32.4457ZM33.6072 32.445L34.5693 40.5909L27.5281 37.1814L33.6072 32.445Z" fill="#E27625"/>
<path d="M27.6832 36.7354L34.8282 40.1951L28.1819 43.3537L28.2509 41.2661L27.6832 36.7354ZM21.3144 36.7369L20.7689 41.232L20.8137 43.3513L14.1519 40.1951L21.3144 36.7369Z" fill="#D5BFB2"/>
<path d="M19.2514 26.6248L21.1185 30.5488L14.7617 28.6866L19.2514 26.6248ZM29.7486 26.6252L34.2595 28.6866L27.8818 30.5483L29.7486 26.6252Z" fill="#233447"/>
<path d="M15.8797 32.4056L14.8522 40.8506L9.34473 32.5903L15.8797 32.4056ZM33.1203 32.4058L39.6554 32.5903L34.1273 40.851L33.1203 32.4058ZM38.3958 24.0726L33.6399 28.9196L29.9729 27.2439L28.2174 30.9347L27.0665 24.588L38.3958 24.0726ZM10.6014 24.0726L21.9329 24.588L20.7819 30.9347L19.0259 27.2445L15.3785 28.9198L10.6014 24.0726Z" fill="#CC6228"/>
<path d="M10.2812 23.0779L15.6621 28.5381L15.8485 33.9285L10.2812 23.0779ZM38.7244 23.0681L33.1471 33.9381L33.3571 28.5381L38.7244 23.0681ZM21.6702 23.4105L21.8867 24.7736L22.4219 28.1694L22.0778 38.5991L20.4513 30.2207L20.4507 30.1341L21.6702 23.4105ZM27.3273 23.3916L28.5499 30.1341L28.5494 30.2207L26.9187 38.6201L26.8542 36.5192L26.5998 28.1076L27.3273 23.3916Z" fill="#E27525"/>
<path d="M33.8354 28.3211L33.6533 33.0045L27.9769 37.427L26.8294 36.6163L28.1157 29.991L33.8354 28.3211ZM15.1846 28.3211L20.8844 29.991L22.1706 36.6163L21.0231 37.427L15.3466 33.0041L15.1846 28.3211Z" fill="#F5841F"/>
<path d="M13.0659 39.1609L20.3282 42.6019L20.2974 41.1325L20.9051 40.599H28.0927L28.7224 41.1306L28.6759 42.5989L35.8922 39.1695L32.3807 42.0713L28.1347 44.9875H20.8468L16.6037 42.0593L13.0659 39.1609Z" fill="#C0AC9D"/>
<path d="M27.1634 36.2773L28.1901 37.0028L28.7918 41.8035L27.921 41.0683H21.0818L20.2275 41.8183L20.8095 37.0032L21.8367 36.2773H27.1634Z" fill="#161616"/>
<path d="M46.0276 0.421875L48.5 7.83881L46.9559 15.3383L48.0554 16.1863L46.5676 17.3214L47.6859 18.1851L46.2052 19.5334L47.1142 20.1917L44.7018 23.0091L34.8074 20.1281L34.7218 20.0822L27.5917 14.0676L46.0276 0.421875ZM2.97237 0.421875L21.4085 14.0676L14.2782 20.0822L14.1926 20.1281L4.29819 23.0091L1.88581 20.1917L2.79406 19.5339L1.31431 18.1851L2.43031 17.3224L0.920187 16.1841L2.06113 15.3354L0.5 7.83919L2.97237 0.421875Z" fill="#763E1A"/>
<path d="M34.3234 19.4981L44.807 22.5504L48.213 33.0478H39.2272L33.036 33.1258L37.5386 24.3493L34.3234 19.4981ZM14.6764 19.4981L11.4605 24.3493L15.9637 33.1258L9.77529 33.0478H0.805664L4.19248 22.5506L14.6764 19.4981ZM31.1344 6.2085L28.202 14.1283L27.5797 24.8271L27.3416 28.1805L27.3227 36.747H21.6769L21.6585 28.1966L21.4196 24.8242L20.7971 14.1283L17.8652 6.2085H31.1344Z" fill="#F5841F"/>
</svg>
