<svg width="45" height="44" viewBox="0 0 45 44" fill="none" xmlns="http://www.w3.org/2000/svg">
<path fill-rule="evenodd" clip-rule="evenodd" d="M16.2292 0.666748H18.3125C24.2042 0.666748 27.1521 0.666748 28.9813 2.498C30.8125 4.32716 30.8125 7.27508 30.8125 13.1667V30.3542H34.0854C36.5938 30.3542 38.625 32.3855 38.625 34.8938V35.0417C38.625 35.4561 38.7896 35.8536 39.0827 36.1466C39.3757 36.4396 39.7731 36.6042 40.1875 36.6042C40.6019 36.6042 40.9993 36.4396 41.2924 36.1466C41.5854 35.8536 41.75 35.4561 41.75 35.0417V25.1459L39.2 24.2959C38.5777 24.0886 38.0363 23.6908 37.6527 23.1587C37.269 22.6266 37.0626 21.9873 37.0625 21.3313V16.2917C37.0625 15.4629 37.3918 14.6681 37.9778 14.082C38.5639 13.496 39.3587 13.1667 40.1875 13.1667H41.75V12.3792C41.75 11.9938 41.75 11.8626 41.7438 11.7417C41.6744 10.5023 41.1162 9.34099 40.1917 8.51258C40.0306 8.37368 39.8659 8.23891 39.6979 8.10841L37.1292 6.05425C36.9661 5.92716 36.8298 5.76896 36.7283 5.58883C36.6269 5.4087 36.5621 5.21022 36.5379 5.00489C36.5137 4.79955 36.5304 4.59145 36.5872 4.39264C36.644 4.19384 36.7397 4.00828 36.8687 3.84672C36.9977 3.68516 37.1575 3.55081 37.3389 3.45147C37.5202 3.35212 37.7194 3.28976 37.925 3.26798C38.1306 3.2462 38.3385 3.26544 38.5366 3.3246C38.7348 3.38375 38.9192 3.48164 39.0792 3.61258L41.6833 5.69591C41.9375 5.90008 42.1125 6.03966 42.2771 6.18758C43.8168 7.56783 44.7465 9.5022 44.8625 11.5667C44.875 11.7855 44.875 12.0105 44.875 12.3376V35.0417C44.875 36.285 44.3811 37.4772 43.5021 38.3563C42.623 39.2354 41.4307 39.7292 40.1875 39.7292C38.9443 39.7292 37.752 39.2354 36.8729 38.3563C35.9939 37.4772 35.5 36.285 35.5 35.0417V34.8938C35.4995 34.5188 35.3502 34.1593 35.0851 33.8942C34.8199 33.629 34.4604 33.4798 34.0854 33.4792H30.8125V40.7709H33.1521C33.5665 40.7709 33.9639 40.9355 34.2569 41.2286C34.55 41.5216 34.7146 41.919 34.7146 42.3334C34.7146 42.7478 34.55 43.1452 34.2569 43.4383C33.9639 43.7313 33.5665 43.8959 33.1521 43.8959H1.64584C1.23144 43.8959 0.834015 43.7313 0.540989 43.4383C0.247964 43.1452 0.0833435 42.7478 0.0833435 42.3334C0.0833435 41.919 0.247964 41.5216 0.540989 41.2286C0.834015 40.9355 1.23144 40.7709 1.64584 40.7709H3.72918V13.1667C3.72918 7.27508 3.72918 4.32716 5.56043 2.498C7.38959 0.666748 10.3375 0.666748 16.2292 0.666748ZM12.5833 30.3542C12.1689 30.3542 11.7715 30.5189 11.4785 30.8119C11.1855 31.1049 11.0208 31.5023 11.0208 31.9167C11.0208 32.3311 11.1855 32.7286 11.4785 33.0216C11.7715 33.3146 12.1689 33.4792 12.5833 33.4792H23C23.4144 33.4792 23.8118 33.3146 24.1049 33.0216C24.3979 32.7286 24.5625 32.3311 24.5625 31.9167C24.5625 31.5023 24.3979 31.1049 24.1049 30.8119C23.8118 30.5189 23.4144 30.3542 23 30.3542H12.5833ZM20.9167 9.00008H14.6667C12.7021 9.00008 11.7208 9.00008 11.1104 9.6105C10.5 10.2209 10.5 11.2022 10.5 13.1667C10.5 15.1313 10.5 16.1126 11.1104 16.723C11.7208 17.3334 12.7021 17.3334 14.6667 17.3334H20.9167C22.8813 17.3334 23.8625 17.3334 24.4729 16.723C25.0833 16.1126 25.0833 15.1313 25.0833 13.1667C25.0833 11.2022 25.0833 10.2209 24.4729 9.6105C23.8625 9.00008 22.8813 9.00008 20.9167 9.00008Z" fill="white"/>
</svg>
