<svg width="21" height="21" viewBox="0 0 21 21" fill="none" xmlns="http://www.w3.org/2000/svg">
<rect x="0.82666" y="1" width="19" height="19" rx="9.5" fill="#D4E9CF"/>
<rect x="0.82666" y="1" width="19" height="19" rx="9.5" stroke="#83C197"/>
<path d="M11.2419 7.89761C11.1866 7.84612 11.1423 7.78402 11.1116 7.71502C11.0808 7.64602 11.0643 7.57153 11.063 7.49601C11.0616 7.42048 11.0755 7.34546 11.1038 7.27542C11.1321 7.20538 11.1742 7.14175 11.2276 7.08834C11.281 7.03492 11.3447 6.99281 11.4147 6.96452C11.4848 6.93623 11.5598 6.92234 11.6353 6.92367C11.7108 6.925 11.7853 6.94154 11.8543 6.97228C11.9233 7.00302 11.9854 7.04735 12.0369 7.10261L15.0369 10.1026C15.1422 10.2081 15.2014 10.3511 15.2014 10.5001C15.2014 10.6492 15.1422 10.7921 15.0369 10.8976L12.0369 13.8976C11.9854 13.9529 11.9233 13.9972 11.8543 14.028C11.7853 14.0587 11.7108 14.0752 11.6353 14.0766C11.5598 14.0779 11.4848 14.064 11.4147 14.0357C11.3447 14.0074 11.281 13.9653 11.2276 13.9119C11.1742 13.8585 11.1321 13.7949 11.1038 13.7248C11.0755 13.6548 11.0616 13.5798 11.063 13.5042C11.0643 13.4287 11.0808 13.3542 11.1116 13.2852C11.1423 13.2162 11.1866 13.1541 11.2419 13.1026L13.2819 11.0626L6.01441 11.0626C5.86523 11.0626 5.72215 11.0034 5.61666 10.8979C5.51117 10.7924 5.45191 10.6493 5.45191 10.5001C5.45191 10.3509 5.51117 10.2079 5.61666 10.1024C5.72215 9.99688 5.86523 9.93761 6.01441 9.93761L13.2819 9.93762L11.2419 7.89761Z" fill="#399356"/>
</svg>
