<svg width="128" height="30" viewBox="0 0 128 30" fill="none" xmlns="http://www.w3.org/2000/svg">
<path d="M24.6577 0.90909V30H19.3452L6.68892 11.6903H6.47585V30H0.325284V0.90909H5.72301L18.2798 19.2045H18.5355V0.90909H24.6577ZM29.7393 30V0.90909H49.0007V5.98011H35.8899V12.9119H47.7223V17.983H35.8899V30H29.7393ZM52.0298 5.98011V0.90909H75.9219V5.98011H67.0156V30H60.9361V5.98011H52.0298Z" fill="white"/>
<path d="M84.2713 6.72727V30H79.3509V6.72727H84.2713ZM88.3196 30V6.72727H103.729V10.7841H93.2401V16.3295H102.706V20.3864H93.2401V30H88.3196ZM105.675 6.72727H111.186L116.493 16.75H116.72L122.027 6.72727H127.538L119.05 21.7727V30H114.163V21.7727L105.675 6.72727Z" fill="#D08AF3"/>
</svg>
