<svg width="42" height="31" viewBox="0 0 42 31" fill="none" xmlns="http://www.w3.org/2000/svg">
<path fill-rule="evenodd" clip-rule="evenodd" d="M0.166666 7.16675C0.166666 5.50915 0.825146 3.91943 1.99725 2.74733C3.16935 1.57523 4.75906 0.916748 6.41667 0.916748H35.5833C37.2409 0.916748 38.8306 1.57523 40.0027 2.74733C41.1748 3.91943 41.8333 5.50915 41.8333 7.16675V13.4167H0.166666V7.16675ZM0.166666 17.5834V23.8334C0.166666 25.491 0.825146 27.0807 1.99725 28.2528C3.16935 29.4249 4.75906 30.0834 6.41667 30.0834H35.5833C37.2409 30.0834 38.8306 29.4249 40.0027 28.2528C41.1748 27.0807 41.8333 25.491 41.8333 23.8334V17.5834H0.166666ZM8.5 5.08341C7.94746 5.08341 7.41756 5.30291 7.02686 5.69361C6.63616 6.08431 6.41667 6.61421 6.41667 7.16675C6.41667 7.71928 6.63616 8.24919 7.02686 8.63989C7.41756 9.03059 7.94746 9.25008 8.5 9.25008H8.52083C9.07337 9.25008 9.60327 9.03059 9.99397 8.63989C10.3847 8.24919 10.6042 7.71928 10.6042 7.16675C10.6042 6.61421 10.3847 6.08431 9.99397 5.69361C9.60327 5.30291 9.07337 5.08341 8.52083 5.08341H8.5ZM6.41667 23.8334C6.41667 23.2809 6.63616 22.751 7.02686 22.3603C7.41756 21.9696 7.94746 21.7501 8.5 21.7501H8.52083C9.07337 21.7501 9.60327 21.9696 9.99397 22.3603C10.3847 22.751 10.6042 23.2809 10.6042 23.8334C10.6042 24.3859 10.3847 24.9159 9.99397 25.3066C9.60327 25.6973 9.07337 25.9167 8.52083 25.9167H8.5C7.94746 25.9167 7.41756 25.6973 7.02686 25.3066C6.63616 24.9159 6.41667 24.3859 6.41667 23.8334ZM14.75 5.08341C14.1975 5.08341 13.6676 5.30291 13.2769 5.69361C12.8862 6.08431 12.6667 6.61421 12.6667 7.16675C12.6667 7.71928 12.8862 8.24919 13.2769 8.63989C13.6676 9.03059 14.1975 9.25008 14.75 9.25008H14.7708C15.3234 9.25008 15.8533 9.03059 16.244 8.63989C16.6347 8.24919 16.8542 7.71928 16.8542 7.16675C16.8542 6.61421 16.6347 6.08431 16.244 5.69361C15.8533 5.30291 15.3234 5.08341 14.7708 5.08341H14.75ZM12.6667 23.8334C12.6667 23.2809 12.8862 22.751 13.2769 22.3603C13.6676 21.9696 14.1975 21.7501 14.75 21.7501H14.7708C15.3234 21.7501 15.8533 21.9696 16.244 22.3603C16.6347 22.751 16.8542 23.2809 16.8542 23.8334C16.8542 24.3859 16.6347 24.9159 16.244 25.3066C15.8533 25.6973 15.3234 25.9167 14.7708 25.9167H14.75C14.1975 25.9167 13.6676 25.6973 13.2769 25.3066C12.8862 24.9159 12.6667 24.3859 12.6667 23.8334Z" fill="white"/>
</svg>
